REM DIRINDEX 1\2\4,1\2\5,1\3\6,1\3\7,1\3\8
REM DIRNAME cjc094,folder01,folder02,folder03,folder04,folder05,folder06,folder07
TITLE ""
FILE "LV2_024_WORDS.mp3" MP3
  TRACK 01 AUDIO
    TITLE "0:"
    INDEX 01 00:00:00
  TRACK 02 AUDIO
    TITLE "6:cjc094_0883"
    INDEX 01 00:00:07
  TRACK 03 AUDIO
    TITLE "0:"
    INDEX 01 00:03:06
  TRACK 04 AUDIO
    TITLE "7:cjc094_0884"
    INDEX 01 00:03:64
  TRACK 05 AUDIO
    TITLE "0:"
    INDEX 01 00:04:62
  TRACK 06 AUDIO
    TITLE "8:cjc094_0885"
    INDEX 01 00:05:01
  TRACK 07 AUDIO
    TITLE "0:"
    INDEX 01 00:06:57
  TRACK 08 AUDIO
    TITLE "7:cjc094_0886"
    INDEX 01 00:07:23
  TRACK 09 AUDIO
    TITLE "0:"
    INDEX 01 00:08:28
  TRACK 10 AUDIO
    TITLE "8:cjc094_0887"
    INDEX 01 00:08:40
  TRACK 11 AUDIO
    TITLE "0:"
    INDEX 01 00:12:38
  TRACK 12 AUDIO
    TITLE "7:cjc094_0888"
    INDEX 01 00:13:14
  TRACK 13 AUDIO
    TITLE "0:"
    INDEX 01 00:14:13
  TRACK 14 AUDIO
    TITLE "8:cjc094_0889"
    INDEX 01 00:14:27
  TRACK 15 AUDIO
    TITLE "0:"
    INDEX 01 00:17:27
  TRACK 16 AUDIO
    TITLE "7:cjc094_0890"
    INDEX 01 00:18:01
  TRACK 17 AUDIO
    TITLE "0:"
    INDEX 01 00:19:01
  TRACK 18 AUDIO
    TITLE "8:cjc094_0891"
    INDEX 01 00:19:16
  TRACK 19 AUDIO
    TITLE "0:"
    INDEX 01 00:21:57
  TRACK 20 AUDIO
    TITLE "7:cjc094_0892"
    INDEX 01 00:22:30
  TRACK 21 AUDIO
    TITLE "0:"
    INDEX 01 00:23:24
  TRACK 22 AUDIO
    TITLE "8:cjc094_0893"
    INDEX 01 00:23:38
  TRACK 23 AUDIO
    TITLE "0:"
    INDEX 01 00:24:49
  TRACK 24 AUDIO
    TITLE "7:cjc094_0894"
    INDEX 01 00:25:33
  TRACK 25 AUDIO
    TITLE "0:"
    INDEX 01 00:26:32
  TRACK 26 AUDIO
    TITLE "8:cjc094_0895"
    INDEX 01 00:26:44
  TRACK 27 AUDIO
    TITLE "0:"
    INDEX 01 00:28:43
  TRACK 28 AUDIO
    TITLE "7:cjc094_0896"
    INDEX 01 00:29:15
  TRACK 29 AUDIO
    TITLE "0:"
    INDEX 01 00:30:18
  TRACK 30 AUDIO
    TITLE "8:cjc094_0897"
    INDEX 01 00:30:32
  TRACK 31 AUDIO
    TITLE "0:"
    INDEX 01 00:34:36
  TRACK 32 AUDIO
    TITLE "7:cjc094_0898"
    INDEX 01 00:35:04
  TRACK 33 AUDIO
    TITLE "0:"
    INDEX 01 00:36:11
  TRACK 34 AUDIO
    TITLE "8:cjc094_0899"
    INDEX 01 00:36:29
  TRACK 35 AUDIO
    TITLE "0:"
    INDEX 01 00:38:41
  TRACK 36 AUDIO
    TITLE "7:cjc094_0900"
    INDEX 01 00:39:13
  TRACK 37 AUDIO
    TITLE "0:"
    INDEX 01 00:40:21
  TRACK 38 AUDIO
    TITLE "8:cjc094_0901"
    INDEX 01 00:40:30
  TRACK 39 AUDIO
    TITLE "0:"
    INDEX 01 00:41:51
  TRACK 40 AUDIO
    TITLE "7:cjc094_0902"
    INDEX 01 00:42:29
  TRACK 41 AUDIO
    TITLE "0:"
    INDEX 01 00:43:35
  TRACK 42 AUDIO
    TITLE "8:cjc094_0903"
    INDEX 01 00:43:46
  TRACK 43 AUDIO
    TITLE "0:"
    INDEX 01 00:44:71
  TRACK 44 AUDIO
    TITLE "7:cjc094_0904"
    INDEX 01 00:45:45
  TRACK 45 AUDIO
    TITLE "0:"
    INDEX 01 00:46:45
  TRACK 46 AUDIO
    TITLE "8:cjc094_0905"
    INDEX 01 00:46:53
  TRACK 47 AUDIO
    TITLE "0:"
    INDEX 01 00:48:48
  TRACK 48 AUDIO
    TITLE "7:cjc094_0906"
    INDEX 01 00:49:16
  TRACK 49 AUDIO
    TITLE "0:"
    INDEX 01 00:50:17
  TRACK 50 AUDIO
    TITLE "8:cjc094_0907"
    INDEX 01 00:50:29
  TRACK 51 AUDIO
    TITLE "0:"
    INDEX 01 00:52:37
  TRACK 52 AUDIO
    TITLE "7:cjc094_0908"
    INDEX 01 00:53:06
  TRACK 53 AUDIO
    TITLE "0:"
    INDEX 01 00:54:07
  TRACK 54 AUDIO
    TITLE "8:cjc094_0909"
    INDEX 01 00:54:21
  TRACK 55 AUDIO
    TITLE "0:"
    INDEX 01 00:55:38
  TRACK 56 AUDIO
    TITLE "7:cjc094_0910"
    INDEX 01 00:56:14
  TRACK 57 AUDIO
    TITLE "0:"
    INDEX 01 00:57:15
  TRACK 58 AUDIO
    TITLE "8:cjc094_0911"
    INDEX 01 00:57:27
  TRACK 59 AUDIO
    TITLE "0:"
    INDEX 01 00:58:15
  TRACK 60 AUDIO
    TITLE "7:cjc094_0912"
    INDEX 01 00:58:58
  TRACK 61 AUDIO
    TITLE "0:"
    INDEX 01 00:59:55
  TRACK 62 AUDIO
    TITLE "8:cjc094_0913"
    INDEX 01 01:00:00
  TRACK 63 AUDIO
    TITLE "0:"
    INDEX 01 01:03:45
